<svg xmlns="http://www.w3.org/2000/svg" width="501" height="285.794" viewBox="0 0 501 285.794">
  <g id="Group_1" data-name="Group 1" transform="translate(-246 -81.206)">
    <path id="Path_1" data-name="Path 1" d="M220.65,200.944V324.175c7.216,44.13,41.127,48.437,53.05,49.681h15.717c26.722-1.157,47.369-13.466,52.243-41.077v-44.13H296.143v35.526c-1.665,13.322-13.322,13.877-13.322,13.877s-14.71,1.388-17.208-13.877V200.944c1.388-12.212,13.626-12.53,15.82-12.49s12.285.662,14.71,12.49v24.147h45.518V200.944c-4.3-42.187-39.819-46.271-45.518-46.628H269.948C258.552,154.467,227.84,160.093,220.65,200.944Z" transform="translate(30 -72)" fill="#343434" stroke="#343434" stroke-width="1"/>
    <path id="Path_2" data-name="Path 2" d="M588.485,200.251V329.421c12.989,46.545,50.875,44.019,50.875,44.019H649.1s17.68,2.165,37.885-20.566v20.566h23.453V248.96H654.152v29.947h10.1v50.514c-1.274,5.228-6.453,7.628-10.1,8.3h-6.484s-9.447.719-13.36-8.3V200.251s2.042-8.6,12.688-9.381h6.022c1.694.083,9.235,2.009,11.237,9.381v25.257h46.184V200.251c-4.581-34.543-35.949-45.711-56.287-46.545H639.359C611.262,155.689,590.24,177.86,588.485,200.251Z" transform="translate(30 -72)" fill="#343434" stroke="#343434" stroke-width="1"/>
    <path id="Path_3" data-name="Path 3" d="M361.534,272.774" transform="translate(30 -72)" fill="none" stroke="#707070" stroke-width="1"/>
    <g id="Ellipse_1" data-name="Ellipse 1" transform="translate(392 91)" fill="#343434" stroke="#343434" stroke-width="1">
      <ellipse cx="104" cy="104.5" rx="104" ry="104.5" stroke="none"/>
      <ellipse cx="104" cy="104.5" rx="103.5" ry="104" fill="none"/>
    </g>
    <path id="Path_4" data-name="Path 4" d="M410.131,253.636l-29.249-1.067V281.6l29.249-.854c1.2,12.617,8.966,24.274,15.8,28.609l-15.8,20.069,25.833,16.226L447.69,321.89c14.15,4.229,25.529,3.951,35.638,0l12.416,22.7,25.62-16.866L506.2,309.359c10.59-7.387,14.475-16.546,16.538-28.609l26.8.854V252.569l-26.8,1.067c-1.231-14.113-6.782-22.161-18.246-30.957l13.664-20.709-26.474-13.877-9.394,22.2a57.851,57.851,0,0,0-34.6,0l-11.989-22.2L410.131,201.97l15.8,22.631C417.8,230.578,411.048,242.022,410.131,253.636Z" transform="translate(30 -72)" fill="#fff" stroke="#343434" stroke-width="1"/>
    <g id="Path_5" data-name="Path 5" transform="translate(451 151)" fill="#343434">
      <path d="M 45 88.5 C 38.99162292480469 88.5 33.16329574584961 87.33645629882812 27.67690658569336 85.04169464111328 C 22.37778854370117 82.82525634765625 17.61867141723633 79.6522216796875 13.53176498413086 75.61073303222656 C 9.445246696472168 71.56961059570312 6.236964702606201 66.86405944824219 3.99603533744812 61.62477493286133 C 1.676235318183899 56.20109558105469 0.5 50.43948364257812 0.5 44.5 C 0.5 38.56051635742188 1.676235318183899 32.79890441894531 3.99603533744812 27.37522315979004 C 6.236964702606201 22.13594055175781 9.445246696472168 17.43038749694824 13.53176498413086 13.3892707824707 C 17.61867141723633 9.347776412963867 22.37778854370117 6.174741268157959 27.67690658569336 3.958305835723877 C 33.16329574584961 1.663541197776794 38.99162292480469 0.5 45 0.5 C 51.00837707519531 0.5 56.83670425415039 1.663541197776794 62.32309341430664 3.958305835723877 C 67.62221527099609 6.174741268157959 72.38133239746094 9.347776412963867 76.46823883056641 13.3892707824707 C 80.55475616455078 17.43038749694824 83.76303863525391 22.13594055175781 86.00396728515625 27.37522315979004 C 88.32376098632812 32.79890441894531 89.5 38.56051635742188 89.5 44.5 C 89.5 50.43948364257812 88.32376098632812 56.20109558105469 86.00396728515625 61.62477493286133 C 83.76303863525391 66.86405944824219 80.55475616455078 71.56961059570312 76.46823883056641 75.61073303222656 C 72.38133239746094 79.6522216796875 67.62221527099609 82.82525634765625 62.32309341430664 85.04169464111328 C 56.83670425415039 87.33645629882812 51.00837707519531 88.5 45 88.5 Z" stroke="none"/>
      <path d="M 45 1 C 39.05822372436523 1 33.2947998046875 2.1505126953125 27.86983871459961 4.419586181640625 C 22.63016510009766 6.611160278320312 17.92442321777344 9.748611450195312 13.88333892822266 13.74479675292969 C 9.843025207519531 17.74022674560547 6.671127319335938 22.39231109619141 4.45574951171875 27.57184982299805 C 2.162689208984375 32.93303680419922 1 38.62848663330078 1 44.5 C 1 50.37151336669922 2.162689208984375 56.06696319580078 4.45574951171875 61.42815017700195 C 6.671127319335938 66.60768890380859 9.843025207519531 71.25977325439453 13.88333892822266 75.25520324707031 C 17.92442321777344 79.25138854980469 22.63016510009766 82.38883972167969 27.86983871459961 84.58041381835938 C 33.2947998046875 86.8494873046875 39.05822372436523 88 45 88 C 50.94177627563477 88 56.7052001953125 86.8494873046875 62.13016510009766 84.58041381835938 C 67.36983489990234 82.38883972167969 72.07557678222656 79.25138854980469 76.11666107177734 75.25520324707031 C 80.15697479248047 71.25977325439453 83.32887268066406 66.60768890380859 85.54425048828125 61.42815017700195 C 87.83731079101562 56.06696319580078 89 50.37151336669922 89 44.5 C 89 38.62848663330078 87.83731079101562 32.93303680419922 85.54425048828125 27.57184982299805 C 83.32887268066406 22.39231109619141 80.15697479248047 17.74022674560547 76.11666107177734 13.74479675292969 C 72.07557678222656 9.748611450195312 67.36983489990234 6.611160278320312 62.13016510009766 4.419586181640625 C 56.7052001953125 2.1505126953125 50.94177627563477 1 45 1 M 45 0 C 69.85281372070312 0 90 19.92333984375 90 44.5 C 90 69.07666015625 69.85281372070312 89 45 89 C 20.14718627929688 89 0 69.07666015625 0 44.5 C 0 19.92333984375 20.14718627929688 0 45 0 Z" stroke="none" fill="#343434"/>
    </g>
    <g id="Ellipse_2" data-name="Ellipse 2" transform="translate(465 164)" fill="#fff" stroke="#343434" stroke-width="1">
      <circle cx="31" cy="31" r="31" stroke="none"/>
      <circle cx="31" cy="31" r="30.5" fill="none"/>
    </g>
    <text id="Creative_Object_Game" data-name="Creative Object Game" transform="translate(246 354)" fill="#343434" font-size="52" font-family="Ebrima-Bold, Ebrima" font-weight="700" letter-spacing="-0.03em"><tspan x="0" y="0">Creative Object Game</tspan></text>
  </g>
</svg>
